<svg width="15" height="15" viewBox="0 0 15 15" fill="none" xmlns="http://www.w3.org/2000/svg">
<path d="M2.25 3.72656C2.25 2.91797 2.91797 2.25 3.72656 2.25C4.57031 2.25 5.23828 2.91797 5.23828 3.72656C5.23828 4.57031 4.57031 5.23828 3.72656 5.23828C2.91797 5.23828 2.25 4.57031 2.25 3.72656ZM13.5 8.22656V2.10938C13.5 0.949219 12.5508 0 11.3555 0C10.793 0 10.2656 0.210938 9.87891 0.597656L8.92969 1.54688C8.82422 1.51172 8.68359 1.47656 8.54297 1.47656C8.26172 1.47656 7.98047 1.58203 7.73438 1.72266L9.80859 3.79688C9.94922 3.55078 10.0547 3.30469 10.0547 2.98828C10.0547 2.84766 10.0195 2.74219 9.98438 2.60156L10.9336 1.65234C11.0391 1.54688 11.2148 1.47656 11.3555 1.47656C11.707 1.47656 11.9883 1.75781 11.9883 2.10938V8.22656H6.85547C6.60938 8.08594 6.43359 7.91016 6.22266 7.69922L5.20312 6.53906C5.02734 6.36328 4.85156 6.25781 4.67578 6.15234C4.42969 6.04688 4.18359 5.97656 3.90234 5.97656C2.98828 6.01172 2.25 6.75 2.25 7.66406V8.22656H0V12.7266C0 13.5703 0.667969 14.2383 1.47656 14.2383C1.47656 14.6602 1.82812 14.9766 2.25 14.9766H12.7266C13.1484 14.9766 13.5 14.6602 13.5 14.2383C14.3086 14.2383 14.9766 13.5703 14.9766 12.7266V8.22656H13.5ZM13.5 12.7266H1.47656V9.73828H13.5V12.7266Z" fill="#D4AF37"/>
</svg>
