<svg width="13" height="13" viewBox="0 0 13 13" fill="none" xmlns="http://www.w3.org/2000/svg">
<path d="M10.2656 10.2656L9.45703 11.0391L8.92969 10.5117L9.73828 9.73828L8.26172 8.26172L7.48828 9.07031L6.92578 8.54297L7.73438 7.73438L6.29297 6.29297L5.48438 7.06641L4.95703 6.53906L5.76562 5.76562L4.28906 4.28906L3.48047 5.09766L2.95312 4.53516L3.76172 3.76172L2.28516 2.28516L1.51172 3.09375L0.984375 2.56641L1.75781 1.75781L0 0V10.5117C0 11.3203 0.703125 12.0234 1.51172 12.0234H12.0234L10.2656 10.2656ZM2.25 9.77344V5.44922L6.57422 9.77344H2.25Z" fill="#D4AF37"/>
</svg>
