<svg width="30" height="24" viewBox="0 0 30 24" fill="none" xmlns="http://www.w3.org/2000/svg">
<path d="M14.9766 17.9297C14.1797 17.9297 13.4766 17.6484 12.8672 17.0859C12.2578 16.4766 11.9531 15.7734 11.9531 14.9766C11.9531 14.1328 12.2578 13.4062 12.8672 12.7969L25.5938 4.35938L17.0859 17.0859C16.5234 17.6484 15.8203 17.9297 14.9766 17.9297ZM27.5625 6.82031C28.2188 7.85156 28.7812 9.16406 29.25 10.7578C29.7188 12.3516 29.9531 13.7578 29.9531 14.9766C29.9531 17.7422 29.2969 20.2266 27.9844 22.4297C27.375 23.4609 26.5078 23.9766 25.3828 23.9766H4.57031C3.44531 23.9766 2.57812 23.4609 1.96875 22.4297C0.65625 20.2266 0 17.7422 0 14.9766C0 10.8516 1.45312 7.33594 4.35938 4.42969C7.3125 1.47656 10.875 0 15.0469 0C16.2656 0 17.6484 0.234375 19.1953 0.703125C20.7891 1.17188 22.1016 1.73438 23.1328 2.39062L20.3203 4.21875C18.6328 3.375 16.8516 2.95312 14.9766 2.95312C11.6953 2.95312 8.85938 4.125 6.46875 6.46875C4.125 8.8125 2.95312 11.6484 2.95312 14.9766C2.95312 17.1328 3.49219 19.125 4.57031 20.9531H25.3828C26.4609 19.125 27 17.1328 27 14.9766C27 13.0547 26.5781 11.25 25.7344 9.5625L27.5625 6.82031Z" fill="#C5A059"/>
</svg>
